<?xml version="1.0"?>
<svg xmlns="http://www.w3.org/2000/svg" viewBox="0 -51 512 512" width="512px" height="512px" class=""><g><path d="m0 0v335.851562h326.15625l83.25 74.027344v-74.027344h102.59375v-335.851562zm126.640625 227.585938c-23.261719 0-42.1875-18.929688-42.1875-42.191407h30c0 6.722657 5.46875 12.191407 12.1875 12.191407 6.722656 0 12.1875-5.46875 12.1875-12.191407 0-6.71875-5.464844-12.1875-12.1875-12.1875-21.5 0-38.992187-17.492187-38.992187-38.992187s17.492187-38.988282 38.992187-38.988282 38.992187 17.488282 38.992187 38.988282h-30c0-4.957032-4.035156-8.988282-8.992187-8.988282s-8.992187 4.03125-8.992187 8.988282c0 4.957031 4.035156 8.992187 8.992187 8.992187 23.265625 0 42.1875 18.925781 42.1875 42.1875s-18.925781 42.191407-42.1875 42.191407zm198.738281-1.960938h-30v-88.210938c0-6.722656-5.46875-12.1875-12.1875-12.1875-6.722656 0-12.191406 5.464844-12.191406 12.1875v88.210938h-30v-88.210938c0-6.722656-5.46875-12.1875-12.1875-12.1875-6.722656 0-12.191406 5.464844-12.191406 12.1875v88.210938h-30v-88.210938c0-23.265624 18.925781-42.1875 42.191406-42.1875 10.351562 0 19.839844 3.753907 27.1875 9.964844 7.347656-6.210937 16.835938-9.964844 27.1875-9.964844 23.265625 0 42.191406 18.925782 42.191406 42.1875zm59.980469 1.960938c-23.265625 0-42.1875-18.929688-42.1875-42.191407h30c0 6.722657 5.464844 12.191407 12.1875 12.191407 6.71875 0 12.1875-5.46875 12.1875-12.191407 0-6.71875-5.46875-12.1875-12.1875-12.1875-21.5 0-38.992187-17.492187-38.992187-38.992187s17.492187-38.988282 38.992187-38.988282 38.992187 17.488282 38.992187 38.988282h-30c0-4.957032-4.035156-8.988282-8.992187-8.988282s-8.992187 4.03125-8.992187 8.988282c0 4.957031 4.035156 8.992187 8.992187 8.992187 23.261719 0 42.1875 18.925781 42.1875 42.1875s-18.925781 42.191407-42.1875 42.191407zm0 0" data-original="#000000" class="active-path" data-old_color="#000000" fill="#D44848"/></g> </svg>
