<?xml version="1.0" standalone="no"?>
<!DOCTYPE svg PUBLIC "-//W3C//DTD SVG 20010904//EN"
 "http://www.w3.org/TR/2001/REC-SVG-20010904/DTD/svg10.dtd">
<svg version="1.0" xmlns="http://www.w3.org/2000/svg"
 width="50.000000pt" height="50.000000pt" viewBox="0 0 50.000000 50.000000"
 preserveAspectRatio="xMidYMid meet">
<metadata>
Created by potrace 1.15, written by Peter Selinger 2001-2017
</metadata>
<g transform="translate(0.000000,50.000000) scale(0.100000,-0.100000)"
fill="#000000" stroke="none">
<path d="M20 480 c-19 -19 -20 -33 -20 -230 0 -197 1 -211 20 -230 19 -19 33
-20 230 -20 197 0 211 1 230 20 19 19 20 33 20 230 0 197 -1 211 -20 230 -19
19 -33 20 -230 20 -197 0 -211 -1 -230 -20z m300 -185 l64 -65 -42 0 -42 0 0
-65 0 -65 -50 0 -50 0 0 65 0 65 -42 0 -42 0 64 65 c35 36 67 65 70 65 3 0 35
-29 70 -65z"/>
</g>
</svg>
